<svg width="67" height="67" viewBox="0 0 67 67" fill="none" xmlns="http://www.w3.org/2000/svg">
<path d="M41.2324 15.4609C32.6938 15.4609 15.59 8.53906 15.59 0H15.4635C15.4635 6.83427 18.1783 13.3886 23.0108 18.2212C27.8433 23.0539 34.3975 25.769 41.2318 25.7692C45.3323 25.7692 49.265 27.3982 52.1647 30.2977C55.0644 33.1972 56.6933 37.13 56.6933 41.2305C56.6943 45.331 55.066 49.2644 52.167 52.1644C49.2679 55.0647 45.3355 56.6943 41.235 56.6953C37.1341 56.6959 33.2011 55.0676 30.3009 52.1686C27.4008 49.2695 25.771 45.3371 25.7702 41.2366C25.7701 37.8525 25.1035 34.5015 23.8083 31.3751C22.5132 28.2487 20.615 25.4079 18.222 23.0151C15.829 20.6222 12.9882 18.7242 9.86161 17.4292C6.73509 16.1343 3.38408 15.4679 0 15.468V15.5935C8.53745 15.5935 15.4594 32.6899 15.4626 41.2302H15.4609C15.4609 46.327 16.9721 51.3092 19.8036 55.5469C22.6351 59.7847 26.6596 63.0877 31.3683 65.0381C36.077 66.9888 41.2582 67.4993 46.2571 66.505C51.2557 65.5109 55.8475 63.0567 59.4516 59.4532C63.0554 55.8494 65.51 51.2579 66.5047 46.259C67.4994 41.2604 66.9891 36.0792 65.039 31.3703C63.089 26.6615 59.7863 22.6367 55.5489 19.8049C51.3111 16.973 46.3289 15.4613 41.2324 15.4609Z" fill="url(#paint0_linear_27_9)"/>
<defs>
<linearGradient id="paint0_linear_27_9" x1="53.3991" y1="57.9551" x2="14.472" y2="4.489" gradientUnits="userSpaceOnUse">
<stop offset="0.295" stop-color="#292929"/>
<stop offset="0.384" stop-color="#AD4858"/>
<stop offset="0.477" stop-color="#C9404A"/>
<stop offset="0.571" stop-color="#E95E51"/>
<stop offset="0.666" stop-color="#EA7B4B"/>
<stop offset="0.761" stop-color="#EDA044"/>
<stop offset="0.857" stop-color="#EFCE3B"/>
<stop offset="0.868" stop-color="#F0D43A"/>
</linearGradient>
</defs>
</svg>
